<mxfile host="app.diagrams.net" modified="2021-10-19T03:45:06.448Z" agent="5.0 (Windows NT 10.0; Win64; x64) AppleWebKit/537.36 (KHTML, like Gecko) Chrome/94.0.4606.81 Safari/537.36" etag="nH8s6DTeTHPNhG3cvqy5" version="15.5.5" type="github">
  <diagram id="ybFkzNdY8bcWSGoHrQ62" name="Page-1">
    <mxGraphModel dx="1422" dy="762" grid="1" gridSize="10" guides="1" tooltips="1" connect="1" arrows="1" fold="1" page="1" pageScale="1" pageWidth="827" pageHeight="1169" math="0" shadow="0">
      <root>
        <mxCell id="0" />
        <mxCell id="1" parent="0" />
        <mxCell id="Ev7BHiUnDRDrdBRxXbJi-2" value="" style="rounded=0;whiteSpace=wrap;html=1;strokeWidth=2;" vertex="1" parent="1">
          <mxGeometry x="354" y="120" width="120" height="60" as="geometry" />
        </mxCell>
        <mxCell id="Ev7BHiUnDRDrdBRxXbJi-3" value="" style="shape=image;verticalLabelPosition=bottom;labelBackgroundColor=#ffffff;verticalAlign=top;aspect=fixed;imageAspect=0;image=data:image/png,iVBORw0KGgoAAAANSUhEUgAAAGYAAABYCAMAAAFHdkIbAAAAAXNSR0IArs4c6QAAAARnQU1BAACxjwv8YQUAAAByUExURQAAAAYBAgAAAAcBAgYBAgcBAQYBAgUAAAYAAgcBAQcAAgcAAAcBAgYBAQcBAgcBAQUAAgYBAQcBAQYAAwcAAwcAAwAAAAwAAAYBAgYAAggAAgYBAQYAAgcAAAcBAgcBAgcBAQkAAAYBAQcBAQoAAAYAA45+6esAAAAmdFJOUwDbEM/jg+sweItsIO+3/6tYv7NMQEgEFN90XJt8JPP7pxy7rxhQIf6GKwAAAAlwSFlzAAAXEQAAFxEByibzPwAAAcNJREFUWEftmetOwkAUhBe5CULxCiLVysX3f0XP6YxIoSTdpEP6Y7+EobvL9LNSApQQiuzINGThFP0o0FzCqT/uOO1Ue9kNRiOaHU4eWXH+gpEdDx9zju2/80v5laWvaxXyzcOv4isbblfpm+wa9mfUk1ZuupJzs8rWGnyizvngQ2JhvYov5NxuTAiLqyd3Pfd+vkV2/AWUOqnT9c4gsmNvt96L5JHt7lL/5lQLG9M+xw0oNiuvcNSYYfDnJ5KVaawYQZYt/FSIwkSpkzqpY6RO6jjd72w5akaW9exWxJTso/I6/JgsDmtGlmbwJQz+SxrwzEZMZ85GeI3/LBLB6KWUvHEoxERrvy8m42XpbJnleFheLVuHnt99clpAeYXJX6MGpyRAgBQCAVIIBEghECCFQIAUAgFSCARIIRAghUCAFAIBUggESCEQIIVAgBQCAVIIBEghECCFQIAUAgFSCARIIRAghUCAFAIBUggESCEQIIVAgBQCAVIIBEghECCFQLD3rP/RrBWmvv9F2J7+Li1i5tcFJhzI2OC4wjbfi75+Dvb5AyWJrnM3L79at0mxO3Dn/7xzrVUuL1kddu0fzROPJoRfxTpzdo30NLQAAAAASUVORK5CYII=;" vertex="1" parent="1">
          <mxGeometry x="394.3" y="133" width="39.41" height="34" as="geometry" />
        </mxCell>
        <mxCell id="Ev7BHiUnDRDrdBRxXbJi-16" style="edgeStyle=orthogonalEdgeStyle;rounded=0;orthogonalLoop=1;jettySize=auto;html=1;exitX=0.5;exitY=0;exitDx=0;exitDy=0;entryX=0.5;entryY=0;entryDx=0;entryDy=0;fontSize=16;" edge="1" parent="1" source="Ev7BHiUnDRDrdBRxXbJi-4" target="Ev7BHiUnDRDrdBRxXbJi-10">
          <mxGeometry relative="1" as="geometry" />
        </mxCell>
        <mxCell id="Ev7BHiUnDRDrdBRxXbJi-4" value="" style="rounded=0;whiteSpace=wrap;html=1;dashed=1;strokeWidth=2;" vertex="1" parent="1">
          <mxGeometry x="184" y="240" width="460" height="310" as="geometry" />
        </mxCell>
        <mxCell id="Ev7BHiUnDRDrdBRxXbJi-5" value="" style="shape=image;verticalLabelPosition=bottom;labelBackgroundColor=#ffffff;verticalAlign=top;aspect=fixed;imageAspect=0;image=data:image/png,iVBORw0KGgoAAAANSUhEUgAAAGkAAABMCAMAAAEuOlkbAAAAAXNSR0IArs4c6QAAAARnQU1BAACxjwv8YQUAAADDUExURQAAAEdHR0hISEdHR0dHR0hISEZGRkdHR0pKSkdHR0dHR0hISE9PTz8/P0hISEhISEdHR0hISEpKSj8/P0hISEdHR0ZGRkdHR0hISEhISElJSUdHR0hISEdHR0dHR0dHR0hISEhISEhISEZGRkdHR0hISEhISEVFRUdHR0hISExMTEdHR0hISEdHR0hISEdHRz8/P0hISElJSUdHR0hISEhISEdHR0ZGRkhISEhISEdHR0hISEdHR0hISEdHR0ZGRkhISP79KDcAAABBdFJOUwCH2yDjdCiPGHzrlxAE85+nODAM+0BIr7e/UMdYYM9o14NwJIsc3yzneBSAk++bowj3NKs8/0RMs7vDVMtcZGzTvIZVFAAAAAlwSFlzAAAXEQAAFxEByibzPwAABlZJREFUWEetmQtb2jwUxyPzAiqoUIcMb5N3KOJUxKNO57bv/6n2PxfapG0one/veWhPLk3aJOfknOCUvT0TmNdN5x7mlnCuzZdnEZ2jpiOH8gOSFF+0COI936Q2uHYNXKUCM7N7RlpkIqVIHjO2O8O5aYkKep0RzYeSRIcQdp17lIJ9rXAhCchXclUaqcRAvjTRuRFf7E28dwE9pMf4oYcch1k9ujZB+U7UMxEQ/TQJIi5JJgoqWfLJueabigry76yM3I4KC+jVTays29V7Cq3h92KJEG2vGX6nELw3czB4PTQxJJGBIv2WgEWzxebp3AQ8bYLR99KEIUh5JLo1EUyzaWgT7bTdJtFnN9WcI+uwRxu4ynAc0wnfwEDKSFatinxR1iCfapqvXgkSA0e8wh0v/6DE3VOa8RyWcM1FTqoaC7KiP3ZPQZH3sT5beCbfh8HZJTMJdHKIZG37jBb1D3USffLLKOUBKmckB5ZXwQR1Z4vl88Qr5rcl4uwTrZu4oENkUxyjdB0iNzJkCkW0I/bYbxSAK/w6Zl58TCGwTDLYdsyaLC0GfKi1vmnS+MxZJkv/asow7UcmOHdGtG1iRgvNq0R0qgKzaGszbSgHvoFvRP4GsCf2tEeB9QkY8GPo05IKp9jWxGEVPic2xBkNSrK9ppQxPu0u31cuXYSgsBh1VdlVgS3BJJ1WNh5iQ/5CalVWAgq3rxL6pK8qVoAB919M1tk8qqbgEsOGNWqplNEPzl7CS7gqS2hP+uPxS6vO6O5Z48C+vJItrT7mXRfcWPZSeFTS9udIlBmEEFbOHyYLrJt5a50HVR5MNL4gy8QIqCA2wAf72ncTS7kp9MMg198c8xCJCudZ+oL9SOFzyb6hwEJjeL9YKoSLSow8/CHmHL9+YCCFNy0dWFLZ4KzGseug/hk/vwbP5NHfB9oT2ZE89+QVSdGpaV/S91MsCzybU4W0GoN3mumk97KBaPLSM3nBJ2TdqfjuNelVQ4WivUWmTqTfIqUbaFJQU8EqwyRlura1GKBO+TPs0HGVwKo3rdNGVB/EqGO0LSlo4nWJDhG14IMHLwJPjFVPE6VgvvBgsHf2sWLZuYnzSx76ZCkBYcjF0mfcrjxkCaWNnbtCu4sPYakUd92Q4utBpfwYpgR9vXdLKfMq8wg1gZmLzH2MbTx0kfuoSog96NA5qARGG9ef9boiBDByq7bWKVBpuZ8UHcUoUHLbo3kPrLLxCvoxdRcdoQp3heG9zquGlQtD8R6GhgHX7/Bt8/4DlL6a0FgyF+IYxJn9soq1uN44kldMmQ1ahc3sw3R5gMsZrhhrrMLzujVK4/2LrkaSu5dn++zSC+tswj5M23yeZK1s6r/d2EQhfP0YbRgasHRiJ9pZJKxckTVp40/VvHd1HEOzVoeeeHxXgTGNAO0HqYLW5EGeblmqgp6sGi+8qkFXOlrmrIcccXV1Xmpw+WtHjUb5UU0pbfmq7f7kKXfiE+H+LGeXkuH0cLUV3MxODmi2U+LWemz6luB8CBPfPNmzQGD99rh4CJdjdDP07FXyNRKq9DhEkBpzc9mOMr/kYXKkb5wMWge8e9IsHhPvbjSkLig5FGhavD/0vN6nguffe976o/XAmWWW89u+7iY39BLyUSfnfw5pYlIAO8CY+yUbk2KBmP9GI+k/3w9HQZ3iYniDu/J1elLZD8PDDLucTjCHVURblvI5LSjuY6fkjeK0NRA2rZSOkmJUAt5oFqyfzStKlsVfJcjRjuql2IIkElQ1/COU3XNK4isuhh7m8VeJFYnZgjNKFhrfRsV/stYyZvDcn/ienVHl2V6EWbelyrESL9zFiS7FuCuwoR/VKl8xq7HJXfTF11vixN53aP8bdp/5R3ZvNi9jxxaY/y6JwKenRD8/5iXo11R8k7lFlcc/S2HD0NB5iuuiHCKnR8L/hszTnp4a1N4qa4FlSwTvSuzF6od89XnkDjgU4kMGmq3iAP0bTTmJERt0zFKyumtSj5H4nWbE1DKVbkUfRoKszDJcys7dyf7Y+78YIZJGw/7U/Mc51KlvqZfxWc/KcoN1bU7G63LvaXW6skegwaKD1L7RIkrunuuc9Ba5f7o11y+J+doPQeSXjF8HNRkHYW8/sr0aX1aKrSv5saIB671Pb1+G5r3WYDzs70xLx965v82ER7lMDF0sAAAAAElFTkSuQmCC;" vertex="1" parent="1">
          <mxGeometry x="184" y="190" width="55.26" height="40" as="geometry" />
        </mxCell>
        <mxCell id="Ev7BHiUnDRDrdBRxXbJi-8" value="&lt;span style=&quot;background-color: rgb(255 , 255 , 51)&quot;&gt;&amp;nbsp; &amp;nbsp; &amp;nbsp; 终端接入&amp;nbsp; &amp;nbsp; &amp;nbsp;&lt;/span&gt;" style="text;html=1;align=center;verticalAlign=middle;resizable=0;points=[];autosize=1;strokeColor=none;fillColor=none;" vertex="1" parent="1">
          <mxGeometry x="364" y="110" width="100" height="20" as="geometry" />
        </mxCell>
        <mxCell id="Ev7BHiUnDRDrdBRxXbJi-9" value="&lt;b&gt;&lt;font style=&quot;font-size: 14px ; background-color: rgb(255 , 255 , 51)&quot;&gt;&amp;nbsp; VPC&amp;nbsp;&amp;nbsp;&lt;/font&gt;&lt;/b&gt;" style="text;html=1;align=center;verticalAlign=middle;resizable=0;points=[];autosize=1;strokeColor=none;fillColor=none;" vertex="1" parent="1">
          <mxGeometry x="181.63" y="240" width="60" height="20" as="geometry" />
        </mxCell>
        <mxCell id="Ev7BHiUnDRDrdBRxXbJi-10" value="" style="rounded=0;whiteSpace=wrap;html=1;dashed=1;labelBackgroundColor=#FFFF33;fontSize=14;" vertex="1" parent="1">
          <mxGeometry x="213" y="267.5" width="401" height="255" as="geometry" />
        </mxCell>
        <mxCell id="Ev7BHiUnDRDrdBRxXbJi-11" value="" style="shape=image;verticalLabelPosition=bottom;labelBackgroundColor=#ffffff;verticalAlign=top;aspect=fixed;imageAspect=0;image=data:image/png,iVBORw0KGgoAAAANSUhEUgAAAGsAAABPCAMAAAGsW/uIAAAAAXNSR0IArs4c6QAAAARnQU1BAACxjwv8YQUAAADDUExURQAAAEBAQD8/P0BAQD8/P0BAQD8/P0BAQD8/P0BAQD8/Pz8/P0BAQD8/Pz8/P0BAQD8/Pz8/P0BAQD8/P0BAQD8/P0BAQD8/P0BAQD8/P0BAQD8/P0BAQEBAQD8/P0BAQEBAQD8/P0BAQEBAQD8/P0BAQD8/P0BAQD8/P0BAQD8/P0BAQD8/Pz8/P0BAQD8/Pz8/P0BAQD8/Pz8/P0BAQD8/P0BAQD8/P0BAQD8/P0BAQEBAQD8/P0BAQEBAQD8/P0BAQF3uQIkAAABBdFJOUwD7QKdIr1C3WL8EYMcMaM8UcNccg3jfJIuA5yyT7zSb9zyj/0SrTLNUu1zDCGTLEGzTGHTbIId84yiP6zCX8zifUY9s/wAAAAlwSFlzAAAXEQAAFxEByibzPwAABnpJREFUWEe1mYla4jAQgFMXD1BkRRYRD5ART8T1wEUO5f2faudqm9IpFJb9v4920iRNmkwmM8EJH0UViPIQLyAy8qV3BvR5h+9xIV/kBLi6cy1J4fvAlVG6BSIsgC+T5IBL0YWALRVc81kFRGsJImgSvvXexktJZAKoQEMTruYomzjjK7+P+Olcz+HntzmFhTAHzrkMvk7bELgEwEyTHnClgoNABaFU999QhyOV3B1MVfKQ0dXWtTUCh5Ie9NwpF3jkJIPzsMsCuJm05Ldf6vINM/xe+MCYLlbuaziuPe1ETDiSEeXieKTiHOdaRZM+4cN3INVI0I7Kn6Vqeg/GycwjaKpEwDDWhS8AX8HdCfZIc62u7cM+3cxeSwdUL6rycQw/+IU3mb5E3VO+Uh4Lfb4ysO1e+D7SPG+14QTw/A2bmjfztFvnGXadDt9P7QciGuHgxPUT3fCg5/DJkgelHY/iM1ZOoyWwKb8nxCgerKG+LMZ6lbKtRRDt9XICLFxV0/BcoaoiLwRLHaqo3C2v+ADwpqLHU+pVSQpZ7wXYU2mOK/okwPVtUuLM4FqTyhU9jMxbFntUKq75ianUassAi05Eegc4FikPZZB1WPeGoawmLEUVYhvP9VC3omEo2OPYvcULPEgCARi4rtfYMLTeCcYAuLY+4vVFNuEl0cd5pY4oeb0c43Z2mJjhLowbpykaYxDrKwDU6NLRZE5a3BAqwLak8zED7S9OYfhNpAcmms8lwpEn3TJ2uTTYP/hQmcEBJb7qGVxI/oWhhJNWXzItKrM59TcpdKvwvr2jqVzo0mMK+mwZZa8O4bkp2bxRyd+aQAUCkF1hIfdY7E5l4hrT3u5v84HGQsUQ3AANd8MHLUPC0WOw2qWKNtgdlXzspxFHtGDT4MrHJZIJwLtKSXADUCnF5Q/siW1UyaZ21cFJQFVChyuNaKi/ronf/LRtmh2mJo5CYi/BsYULaxx8StSgNy+keLm0DddZpAPY0lKdUXAb12rouM1/ZjZY7QfdcVQv+EE+cFRodnB7kTTxTQNlEAUFpAm0vwC6TCHVjKW75U0kah35z3FTW9lKCjcqUDMN/Hm7hteRmJM6RhWT+IVNbMf3Euym8LPoKgkE3Q18FntL+Wodcy1NIHatgCfWL5asNayokOaAYgSFa6lbQGQasTfv3QOuFdo+BJf6rm6TPrscjYXQaLSTluwJfYoU9YQzhspODpqm8qK7c649L0J8Xt+FyIMuEU+nxHwYxAsQnRde9tgkOT8q2kTRRSeScaFxlJEDNDhReEcmKo/j90pmSWWkiKnmsu36CpcIB58RO/iAUE8hjebPa9wffb4Ic2J/3aZDlZDmfS3TG1zMoHYw5x5UGhxobZjvbG+pGpuvDVCIF11ltDOhLev47OYjbn7seyj/QIm8SWLXUp7vMFTsZIRJq4DhAjHNjoV6NSlyv6YahKAtQr5yLQcz2swPOYtJdzGLAmvowdqf9sy9DS3RMniwL141tSroHST2jiXsU/HmWl/2ygO4MLSfg6Pr/gqxMTbyJzY6OQIAj3ibaNaWNzmQs9aQvKFNyCRhw4oLTnA+D7QQBPenW2uvzde9aTQwfc/B8CjQfoQMDzdgAXDJobtBBOkVcydfXzd9vTU51glJ6lePz69gN++hTG7EPXj33iv76+M/2jMbsdzRkQwvQjDj8N71ebE+t0GaBPXitGBOtOimnqRzU23DuJRHWKzdb6lvuZhpn3RraoRWPTZ13BiHJlZT5xCcrzaBvUZg+SRlPh6hvYIXVVr9enWorq78pQoM0/27pCaq7GebtrxlHAhkMaDh+xI3Z2wdcs2okUM3pZuxqurLjic8xExInNmw4s0J5XfYDbWC5cfc0XB4PH3P8i0NVgrKf+E+WWcGuOasQwabqz68iJ/wCfIPxBzsiMk2b+2mN6vuKMSb7THwmXPFsRNk7h3P+MkV207b0D7R9MK7GD7JnlH3w6FOc4cR0ApkuqR8vIPeBBvj+Aj5f0BndRx2YYCOdmMlL2FFntlu8H+QbA8D+Y/zfzDg/0lVz2RL2Wi04XHNdj5SaTkZqs4bstUUg5g/HEW7K7tw9Ocs6r84B7eb3pfLcr7YTK7fTzkWH2/S37iUiMIwJGca0LVrm/i63h890w+e9EmSKKrD7+vsb52s02bvZOuhFU90dYE7WtrX794AwShH0HI1sg6lVuGrs5MaFOf+AhjbKrb/Y5ybAAAAAElFTkSuQmCC;" vertex="1" parent="1">
          <mxGeometry x="239.26000000000002" y="350" width="54.18" height="40" as="geometry" />
        </mxCell>
        <mxCell id="Ev7BHiUnDRDrdBRxXbJi-12" value="&lt;font style=&quot;font-size: 11px&quot;&gt;弹性云服务器ECS&lt;/font&gt;" style="text;html=1;align=center;verticalAlign=middle;resizable=0;points=[];autosize=1;strokeColor=none;fillColor=none;fontSize=14;" vertex="1" parent="1">
          <mxGeometry x="211.35000000000002" y="390" width="110" height="20" as="geometry" />
        </mxCell>
        <mxCell id="Ev7BHiUnDRDrdBRxXbJi-21" style="edgeStyle=orthogonalEdgeStyle;rounded=0;orthogonalLoop=1;jettySize=auto;html=1;exitX=0.5;exitY=1;exitDx=0;exitDy=0;entryX=0.5;entryY=0;entryDx=0;entryDy=0;fontSize=16;" edge="1" parent="1" source="Ev7BHiUnDRDrdBRxXbJi-14" target="Ev7BHiUnDRDrdBRxXbJi-18">
          <mxGeometry relative="1" as="geometry" />
        </mxCell>
        <mxCell id="Ev7BHiUnDRDrdBRxXbJi-14" value="&lt;b&gt;Nginx&lt;/b&gt;" style="rounded=0;whiteSpace=wrap;html=1;labelBackgroundColor=#FFFFFF;fontSize=16;strokeWidth=1;" vertex="1" parent="1">
          <mxGeometry x="356" y="300" width="116" height="30" as="geometry" />
        </mxCell>
        <mxCell id="Ev7BHiUnDRDrdBRxXbJi-22" style="edgeStyle=orthogonalEdgeStyle;rounded=0;orthogonalLoop=1;jettySize=auto;html=1;exitX=0.5;exitY=1;exitDx=0;exitDy=0;entryX=0.5;entryY=0;entryDx=0;entryDy=0;fontSize=16;" edge="1" parent="1" source="Ev7BHiUnDRDrdBRxXbJi-18" target="Ev7BHiUnDRDrdBRxXbJi-19">
          <mxGeometry relative="1" as="geometry" />
        </mxCell>
        <mxCell id="Ev7BHiUnDRDrdBRxXbJi-18" value="&lt;b&gt;.NET&lt;/b&gt;" style="rounded=0;whiteSpace=wrap;html=1;labelBackgroundColor=#FFFFFF;fontSize=16;strokeWidth=1;" vertex="1" parent="1">
          <mxGeometry x="356" y="370" width="116" height="30" as="geometry" />
        </mxCell>
        <mxCell id="Ev7BHiUnDRDrdBRxXbJi-19" value="&lt;b&gt;Mysql&lt;/b&gt;" style="rounded=0;whiteSpace=wrap;html=1;labelBackgroundColor=#FFFFFF;fontSize=16;strokeWidth=1;" vertex="1" parent="1">
          <mxGeometry x="356" y="440" width="116" height="30" as="geometry" />
        </mxCell>
        <mxCell id="Ev7BHiUnDRDrdBRxXbJi-23" value="" style="shape=image;verticalLabelPosition=bottom;labelBackgroundColor=#ffffff;verticalAlign=top;aspect=fixed;imageAspect=0;image=data:image/png,iVBORw0KGgoAAAANSUhEUgAAAGQAAABvCAMAAAFa/KUzAAAAAXNSR0IArs4c6QAAAARnQU1BAACxjwv8YQUAAADDUExURQAAAEBAQD8/P0BAQD8/P0BAQD8/P0BAQD8/P0BAQD8/Pz8/P0BAQD8/Pz8/P0BAQD8/Pz8/P0BAQD8/P0BAQD8/P0BAQD8/P0BAQD8/P0BAQD8/P0BAQEBAQD8/P0BAQEBAQD8/P0BAQEBAQD8/P0BAQD8/P0BAQD8/P0BAQD8/P0BAQD8/Pz8/P0BAQD8/Pz8/P0BAQD8/Pz8/P0BAQD8/P0BAQD8/P0BAQD8/P0BAQEBAQD8/P0BAQEBAQD8/P0BAQF3uQIkAAABBdFJOUwD7QKdIr1C3WL8EYMcMaM8UcNccg3jfJIuA5yyT7zSb9zyj/0SrTLNUu1zDCGTLEGzTGHTbIId84yiP6zCX8zifUY9s/wAAAAlwSFlzAAAXEQAAFxEByibzPwAACSBJREFUWEetmYla4jAQgFtdD1A8ERVFisOhgLKigIIi7/9UO1fTpBdV9v+0zTVpm0wmM8ETSnonoIn/mv4jiXO+hYWcOuXEnlbQrc5/YY4Y4z/lPr1gG283dp3XcXKIneac/1fTWmVfCfAGlsxwWxMIFgdLkwxv3WNJI/rkMme4doG3E82IzEgyXlB+6nOBlnv4PUiY6VAqzAgmV5/hZV+yYSG0Y629ITCaM9SjIoBXTVH6TlPKnrQDfl8BDjThHePXhN00wRoibKQ15innOCWM1tzSQ1d/tEhvVNOArbDo8lSrrOeEzL3bF7yB14vVQOtK7vgXF2LgQm5u5YOTD4A6RwCmkrBopw2oUK09acol4En40lzEq3RUARhy3gAw0dSt8yyAnqYIAF4UyFvijQD25cY5h08qrFsV1SgNJzrmDHjcCdPEWdAk9+o00wxU5MZXQmsewtmPqrTG+pywSmoCj6bgWlaRGAStAe8Dnw/esITCvl3D3zEdSIGiz7EA71Hv8RpvJUVpMrgW+B6vucO1gRr7gTWieIZzuQHaPyBrFUftW7zDqOjRTK8AgFZOAXjQFK1Dpx0ueUncJfve4SKAD8k6kIq+azqLFisycqYFaxhQ2y4nDynZ5mQml9TmTTPMFpXwjKaxTbXGHlnUqOJSM4aRj6WN0DAnOSCpe80guFAAqprJpNzAVmTiEUyFC3cdODRswVLMAu5uUCtvJTUDW9dDm+xQngLtSXAtWZsbbI6vpTlmjOOAGzET2NtzSEzkE3xrA0CqMNeUwRG5UyPrUAGz5wq2SD/5TczULbdFZH4rPdRlLCN0AV46MpYI7lGoTzhGLTg+gIDLvA7QQr2zNd8SqRzwhhynDGiSbAWzRDIpg3cNL8bSFxEZS30JRGkLiPTwQ+bYKGyHt6M1Int9tdsC7zhoKOyyfFCV6YbbGJCRXAstc91gyYVBEkvV4R5bLNxlW6Gl7LgcEbzM01YV+zNxXSYdQ9IsYgjv+MYR4PW+zlAiwyWJKUk3IovW/duytNboOPTva4Np/KvyeNa3WmePDdfankiMXxpsOt94znj0Ivc4Ax5VX7xkpEpC5OFm06Mm0S6IvFBJzIO16FO18USUvD1hQgL1lDr0Fl1PLAT9sExlJi2GuH/4RYWRA57gnerVk2B2qSBzQ2R4F61pRvbCIOZfJkEjYdSBkuSFr4WWExv1x8IegXeCMvg25Yw1NK7HvB4CG6O1Rq3VvEMJPQC41UzEBaDRBBBfz2WPzCkcac4CcF8L/RWb1hu5Xkdpj6cPT7zXFi79dwpuHtN3VzLjmhFWaOBUcUdp+pMQQV1Wp5howY6mIuIibzFPBsc0rtkxEd8O+4TnuIwrsnS/SrADacIReUq8BFNzdcMRyTILoJG04IrwH9GfH1iWvh02YGyRkdz7qD63gNEyWjCV822TY4sMaEvDiQxuaWwx/Y0bC3uDjkNiiYxwIZSgjst7CVehp3MiqztLxN+jgII4X8C3pDzvjGpX1gTbL9ZP85DJHtHDNIPYIlnM0cv8oYjXucY2xu4VEqFntBqgrlchkXfeYSbqExQROQ3rYZevBUQwjmuxMsh+LiJyiJEFeMuAguiJhIDk+KRvHRGwcKwGPQzVSnMZOPb9lFvHIqlcUGFp/NAXO5SCtZCzxwmK61J95Di0X2sc/ITJnDhMoXBM43uCtsJ89/IcW7hm/YNK0tWfob0xsZmyP2jvuRboHKc7QPR20Z4bwQFsxhvw28V3LvZs03YthT0jx28rYYGf762fYZPANHmlLhzPKQ32fkQd2JvLeaeIGbVU1rxTBL0dE502reeqtHy7z48bClBuryw3PejsrtXKn3LOhxRxdqKjnI3Z59MOon7V35pMWvsz9kOJxcF/+KCTJukk0Zi5jmRfrCGynbFgivHHqMAg1X+/7Gg11H6iIxGVqZzB4hzPckakfLTQZtBMO7PL4ZsPuIjjAr7zDXrMwln+/hExnIWf4BcP9oazUL2D9UKfP38pQ8vElM8tLUqywfCGDKvRRKYENSccFRLvjjv4c7pGJUvukV4/HNHtokd9uYy+dHH5URg4lmFaHP1Pa7QrZiJQy/OXc4PipzzeyV2RNV6WpcpncXy242frQ4xTnNp6CYc3GYEluORZuKDYh8g7vrGooJYO+JDhGVZcks+IlW2ft3074MoD3Yc3XmqjBQSFtJxj+l7u4YFh+LDDXx6oT9GEWjElQRcP5wK9QkSL0phURU0OZ5YhfoX3gprIsrkPGfECDu53E6v3YQnL9N/PYkj3ck2hQictjYsU68CM0cq9rz/4ku7lmmAfv6G2Rq//4CLurBk26V6uMVr4iCIaVxnAGlWW7uXqgltW4iA/g8ph/kKW7uVqU1nA8gem/tNPnNBZSPdytdmBBs5296XoxwxrUMtSj6yHYMBDZmlUNUE3Mgz9n7O9r4vd+AZ7n71sWCjlIQtz5jKe0onoMXXQxcS2N/5+ah7LXtGzPYxVpmfObRMPQTPDJyhbO1ju9/qV1hKOKQRG392K/j6uGravtMrSFOleroYJLMtemwKT44NwoD878vLOAQrSrcMidDfqGce3LJj4EoyKMSRMelsTc4xsMcK3kfW0H/344CDdy/X3zDW0eon/3CVI93LdhDn/kjSFIG3ApHu5bkRlEHx4W00KbutxZ0S6l+tGoHrrZja6XoLvGD3pXq4bUMZ9n095FJwk68cj6V6uv2fXhzNevOX2tFcqXW9toX5Gllm65811A7+xTqecnxRqNOa7N5MvshHbZmJ0j7+iW6r2FQNg2MWPyXBFyBqhkaYfkde7K9l8NsCfZ5nHEfs4qNo3dPfTjcKGTGjsxNUUZ3LnB75wMcpN6tfsm2yvoGYr4sa0JUx5jEZSHoqsfhliuYzCyLkTG56PMFo8K+Cu5/Edho7P9tZqqEw1QAqqv5wgEwT7X3kx8D7/2IbkRLAZmHB+kXPYGGIGLjWCTSeKnA8LLwYzcPBY4LTpktwB4genC4pGlmiT/mYtaMKM7/vvznCiV4SdVLsz5p9YiceC8WA65QvVF6jHprMfHqz50/9hLLrmnO5t1r0ZVT7ar+YY5beDlEb6GeRmg5RG+dScBxKDp6L67Xn/AP4KWAy4dfBFAAAAAElFTkSuQmCC;" vertex="1" parent="1">
          <mxGeometry x="490" y="427.5" width="49.55" height="55" as="geometry" />
        </mxCell>
        <mxCell id="Ev7BHiUnDRDrdBRxXbJi-26" value="" style="endArrow=classic;html=1;rounded=0;fontSize=16;exitX=0.5;exitY=1;exitDx=0;exitDy=0;" edge="1" parent="1" source="Ev7BHiUnDRDrdBRxXbJi-2" target="Ev7BHiUnDRDrdBRxXbJi-14">
          <mxGeometry width="50" height="50" relative="1" as="geometry">
            <mxPoint x="424" y="235" as="sourcePoint" />
            <mxPoint x="474" y="185" as="targetPoint" />
          </mxGeometry>
        </mxCell>
        <mxCell id="Ev7BHiUnDRDrdBRxXbJi-30" value="&lt;font style=&quot;font-size: 12px&quot;&gt;Mysql&lt;/font&gt;" style="text;html=1;align=center;verticalAlign=middle;resizable=0;points=[];autosize=1;strokeColor=none;fillColor=none;fontSize=16;" vertex="1" parent="1">
          <mxGeometry x="490" y="473" width="50" height="30" as="geometry" />
        </mxCell>
      </root>
    </mxGraphModel>
  </diagram>
</mxfile>
